<svg xmlns="http://www.w3.org/2000/svg" width="661.333" height="200" viewBox="0 0 661.333 200"><defs><clipPath id="b" clipPathUnits="userSpaceOnUse"><path d="M-173.133 106.161h496v-150h-496Z"/></clipPath><clipPath id="c" clipPathUnits="userSpaceOnUse"><path d="M-190.08 79.077h496v-150h-496Z"/></clipPath><clipPath id="d" clipPathUnits="userSpaceOnUse"><path d="M-210.133 105.57h496v-150h-496Z"/></clipPath><clipPath id="e" clipPathUnits="userSpaceOnUse"><path d="M-223.174 101.259h496v-150h-496Z"/></clipPath><clipPath id="f" clipPathUnits="userSpaceOnUse"><path d="M-239.399 105.57h496v-150h-496Z"/></clipPath><clipPath id="g" clipPathUnits="userSpaceOnUse"><path d="M-284.02 94.321h496v-150h-496Z"/></clipPath><clipPath id="h" clipPathUnits="userSpaceOnUse"><path d="M-328.865 79.077h496v-150h-496Z"/></clipPath><clipPath id="i" clipPathUnits="userSpaceOnUse"><path d="M-342.592 94.321h496v-150h-496Z"/></clipPath><clipPath id="j" clipPathUnits="userSpaceOnUse"><path d="M-358.354 103.054h496v-150h-496Z"/></clipPath><clipPath id="k" clipPathUnits="userSpaceOnUse"><path d="M-385.733 106.161h496v-150h-496Z"/></clipPath><clipPath id="l" clipPathUnits="userSpaceOnUse"><path d="M-405.048 105.865h496v-150h-496Z"/></clipPath><clipPath id="m" clipPathUnits="userSpaceOnUse"><path d="M-414.242 101.259h496v-150h-496Z"/></clipPath><clipPath id="n" clipPathUnits="userSpaceOnUse"><path d="M-433.87 105.57h496v-150h-496Z"/></clipPath><clipPath id="o" clipPathUnits="userSpaceOnUse"><path d="M-455.885 94.321h496v-150h-496Z"/></clipPath><clipPath id="p" clipPathUnits="userSpaceOnUse"><path d="M-167.02 56.598h496v-150h-496Z"/></clipPath><clipPath id="q" clipPathUnits="userSpaceOnUse"><path d="M-183.96 64.438h496v-150h-496Z"/></clipPath><clipPath id="r" clipPathUnits="userSpaceOnUse"><path d="M-198.296 62.534h496v-150h-496Z"/></clipPath><clipPath id="s" clipPathUnits="userSpaceOnUse"><path d="M0 150h496V0H0Z"/></clipPath><clipPath id="t" clipPathUnits="userSpaceOnUse"><path d="M0 150h496V0H0Z"/></clipPath><clipPath id="u" clipPathUnits="userSpaceOnUse"><path d="M-224.364 62.534h496v-150h-496Z"/></clipPath><clipPath id="v" clipPathUnits="userSpaceOnUse"><path d="M-240.772 62.534h496v-150h-496Z"/></clipPath><clipPath id="w" clipPathUnits="userSpaceOnUse"><path d="M0 150h496V0H0Z"/></clipPath><clipPath id="x" clipPathUnits="userSpaceOnUse"><path d="M-265.412 55.926h496v-150h-496Z"/></clipPath><clipPath id="y" clipPathUnits="userSpaceOnUse"><path d="M0 150h496V0H0Z"/></clipPath><clipPath id="z" clipPathUnits="userSpaceOnUse"><path d="M-285.29 50.718h496v-150h-496Z"/></clipPath><clipPath id="A" clipPathUnits="userSpaceOnUse"><path d="M-310.097 64.662h496v-150h-496Z"/></clipPath><clipPath id="B" clipPathUnits="userSpaceOnUse"><path d="M-316.788 44.39h496v-150h-496Z"/></clipPath><clipPath id="C" clipPathUnits="userSpaceOnUse"><path d="M-339.3 55.926h496v-150h-496Z"/></clipPath><clipPath id="D" clipPathUnits="userSpaceOnUse"><path d="M23.894 122.428V34.76c0-4.133 3.382-7.514 7.515-7.514h95.181c4.133 0 7.515 3.381 7.515 7.514v87.668zm37.572-15.029a5.01 5.01 0 0 0 5.01 5.01h25.048a5.01 5.01 0 0 0 5.01-5.01 5.01 5.01 0 0 0-5.01-5.01H66.476a5.01 5.01 0 0 0-5.01 5.01"/></clipPath><clipPath id="E" clipPathUnits="userSpaceOnUse"><path d="M-67.63 10.02V-77.65c0-4.133 3.382-7.514 7.515-7.514h95.181c4.133 0 7.515 3.381 7.515 7.514V10.02zm37.572-15.03A5.01 5.01 0 0 0-25.048 0H0a5.01 5.01 0 0 0 5.01-5.01A5.01 5.01 0 0 0 0-10.02h-25.048a5.01 5.01 0 0 0-5.01 5.01"/></clipPath><clipPath id="F" clipPathUnits="userSpaceOnUse"><path d="M-7.558-47.591v-.293q0-.035.002-.07v-.108l.002-.106v-.139q.002-.023.002-.046v-.017l.003-.145v-.005l.006-.237v-.087l.004-.115q0-.017.002-.034 0-.036.002-.072v-.062l.007-.154v-.02l.004-.105v-.006q0-.017.002-.033v-.031l.012-.267.006-.142v-.011q.003-.012.002-.024v-.013l.003-.054q0-.016.002-.032v-.024l.007-.108q0-.02.002-.04v-.002l.014-.24.003-.058v-.017q.006-.067.009-.133v-.009q.012-.15.02-.3v-.003l.006-.06.003-.046q0-.02.002-.041v-.006q.045-.593.102-1.184.001-.019.004-.038l.009-.094.006-.056.006-.063q.063-.599.139-1.192 0-.01.002-.017l.013-.103.005-.038.012-.086.01-.076.007-.054q.069-.501.148-.998h94.002q.114.719.206 1.446v.008l.013.094.009.07.008.065.012.105.005.04.016.132q0 .01.002.019.038.325.07.652.093.907.15 1.822l.002.003v.01l.008.134v.009l.005.073.007.114.006.117q.001.035.004.066v.028q.002.005.002.008v.035l.002.007v.025l.004.056q0 .022.002.046v.024h.002v.009l.012.276v.02l.002.024v.005l.005.118v.02l.004.099q0 .02.002.038v.013l.003.087q0 .03.002.06v.012q0 .023.002.045l.002.086v.02l.004.107v.052q0 .01.002.02c0 .032 0 .059.002.09l.003.172v.055l.002.066v.059q.002.03.002.06v.066q.002.02.002.038v.127q0 .025.002.05v.412c0 26.284-21.305 47.59-47.59 47.59C13.75 0-7.557-21.306-7.557-47.59"/></clipPath><clipPath id="G" clipPathUnits="userSpaceOnUse"><path d="M0 47.591v-.293q0-.035.002-.07v-.108l.002-.106v-.139q.003-.022.002-.046v-.017l.003-.145v-.005l.006-.237v-.087l.004-.115q0-.016.002-.034 0-.036.002-.072v-.062l.007-.154v-.02l.004-.105v-.006q0-.016.002-.033v-.031l.012-.267.006-.142v-.01q.003-.013.002-.025v-.013l.003-.054q0-.015.002-.032v-.024l.007-.108q0-.02.002-.039v-.003l.014-.239.003-.059v-.017q.006-.066.009-.133v-.009q.012-.15.02-.299v-.004l.006-.059.003-.047q0-.02.002-.04v-.007q.045-.593.102-1.184.001-.019.004-.038l.009-.094.006-.056.006-.063q.063-.598.139-1.192 0-.008.002-.017l.013-.103.005-.038.012-.086.01-.076.007-.054q.069-.501.148-.998h94.002q.114.72.206 1.446v.008l.013.094.009.071.008.064.012.105.005.04.016.132q0 .01.002.02.038.324.07.651.093.907.15 1.822l.002.003v.01l.008.134v.009l.005.073.007.114.006.117v.001q.001.033.004.065v.028q.003.005.002.008v.035l.002.007v.025l.004.056q0 .023.002.046v.024h.002v.01l.012.275v.02l.002.024v.005l.005.118v.021l.004.098q0 .02.002.038v.013q0 .044.003.087 0 .03.002.061v.011q0 .022.002.045l.002.086v.021l.004.106v.052q0 .01.002.021c0 .031 0 .058.002.09l.003.171v.055l.002.066v.059q.002.031.002.061v.065q.002.02.002.038v.127q0 .025.002.05v.412c0 26.284-21.305 47.591-47.59 47.591C21.309 95.182 0 73.875 0 47.592"/></clipPath><clipPath id="H" clipPathUnits="userSpaceOnUse"><path d="M-47.591-21.636v-.116l.001-.089v-.088l.001-.07v-.099l.001-.009.001-.106v-.047l.001-.012v-.08l.001-.046v-.017l.003-.145v-.005l.006-.237v-.052l.001-.015v-.02l.003-.115.002-.034.002-.072v-.004l.001-.046v-.012l.006-.154.001-.02.003-.105v-.006l.002-.033v-.014l.001-.013v-.004l.011-.267.006-.142.001-.01.001-.025v-.007l.001-.006.002-.054.002-.032v-.006l.001-.005v-.013l.006-.108.002-.039v-.003l.014-.239.003-.059.001-.008v-.009l.008-.133v-.002l.001-.005v-.002l.02-.299v-.004l.005-.059.003-.047.002-.04.001-.007q.044-.593.101-1.184l.004-.038.009-.094.006-.056.006-.063q.063-.598.139-1.192l.002-.017.013-.103.005-.038.012-.086.01-.076.007-.054q.069-.501.148-.998h94.002q.114.72.206 1.446l.001.008.012.094.009.071.008.064.012.105.005.04.016.132.002.02q.038.324.071.651.091.906.15 1.822l.001.003v.01l.008.134.001.002v.007l.004.073.007.114.006.117v.001l.004.065.001.012v.016l.001.008.001.035.001.007v.005l.001.005v.015l.003.056.002.046.001.024h.001v.01l.012.275v.003l.001.013v.004l.001.024v.005l.005.118v.021l.004.098.002.038v.013l.003.087.002.061v.011l.002.045.002.086.001.01v.011l.003.106v.025l.001.024v.003l.001.021.002.09.003.171.001.021v.034l.001.066.001.007v.052l.001.061v.005l.001.03v.03l.001.038v.01l.001.113v.004l.001.05V-22l.001.072v.292C47.59 4.648 26.284 25.955 0 25.955c-26.283 0-47.591-21.307-47.591-47.59"/></clipPath><clipPath id="I" clipPathUnits="userSpaceOnUse"><path d="M-47.591-21.636v-.116l.001-.089v-.088l.001-.07v-.099l.001-.009.001-.106v-.047l.001-.012v-.08l.001-.046v-.017l.003-.145v-.005l.006-.237v-.052l.001-.015v-.02l.003-.115.002-.034.002-.072v-.004l.001-.046v-.012l.006-.154.001-.02.003-.105v-.006l.002-.033v-.014l.001-.013v-.004l.011-.267.006-.142.001-.01.001-.025v-.007l.001-.006.002-.054.002-.032v-.006l.001-.005v-.013l.006-.108.002-.039v-.003l.014-.239.003-.059.001-.008v-.009l.008-.133v-.002l.001-.005v-.002l.02-.299v-.004l.005-.059.003-.047.002-.04.001-.007q.044-.593.101-1.184l.004-.038.009-.094.006-.056.006-.063q.063-.598.139-1.192l.002-.017.013-.103.005-.038.012-.086.01-.076.007-.054q.069-.501.148-.998h94.002q.114.72.206 1.446l.001.008.012.094.009.071.008.064.012.105.005.04.016.132.002.02q.038.324.071.651.091.906.15 1.822l.001.003v.01l.008.134.001.002v.007l.004.073.007.114.006.117v.001l.004.065.001.012v.016l.001.008.001.035.001.007v.005l.001.005v.015l.003.056.002.046.001.024h.001v.01l.012.275v.003l.001.013v.004l.001.024v.005l.005.118v.021l.004.098.002.038v.013l.003.087.002.061v.011l.002.045.002.086.001.01v.011l.003.106v.025l.001.024v.003l.001.021.002.09.003.171.001.021v.034l.001.066.001.007v.052l.001.061v.005l.001.03v.03l.001.038v.01l.001.113v.004l.001.05V-22l.001.072v.292C47.59 4.648 26.284 25.955 0 25.955c-26.283 0-47.591-21.307-47.591-47.59"/></clipPath><clipPath id="J" clipPathUnits="userSpaceOnUse"><path d="M-47.591-17.308v-.116l.001-.09v-.087l.001-.07v-.1l.001-.008.001-.106v-.047l.001-.012v-.08l.001-.046v-.017l.003-.145v-.005l.006-.237v-.052l.001-.015v-.02l.003-.115.002-.034.002-.072v-.004l.001-.046v-.012l.006-.154.001-.02.003-.105v-.006l.002-.033v-.014l.001-.013v-.004l.011-.267.006-.142.001-.011.001-.024v-.007l.001-.006.002-.054.002-.032v-.006l.001-.005v-.013l.006-.108.002-.04v-.002l.014-.24.003-.058.001-.008v-.009l.008-.133v-.002l.001-.005v-.002l.02-.3v-.003l.005-.06.003-.046.002-.041.001-.006q.044-.593.101-1.184l.004-.038.009-.094.006-.056.006-.063q.063-.599.139-1.192l.002-.017.013-.103.005-.038.012-.086.01-.076.007-.054q.069-.501.148-.998h94.002q.114.719.206 1.446l.001.008.012.094.009.07.008.065.012.105.005.04.016.132.002.019q.038.325.071.652.091.907.15 1.822l.001.003v.01l.008.134.001.002v.007l.004.073.007.114.006.117.004.066.001.012v.016l.001.008.001.035.001.007v.005l.001.005v.015l.003.056.002.046.001.024h.001v.009l.012.276v.003l.001.013v.004l.001.024v.005l.005.118v.02l.004.099.002.038v.013l.003.087.002.06v.012l.002.045.002.086.001.01v.01l.003.107v.025l.001.024v.003l.001.02.002.09.003.172.001.02v.035l.001.066.001.007v.052l.001.06v.006l.001.029v.031l.001.038v.01l.001.113v.004l.001.05v.048l.001.072v.292c0 26.284-21.306 47.59-47.59 47.59-26.283 0-47.591-21.306-47.591-47.59"/></clipPath><clipPath id="L" clipPathUnits="userSpaceOnUse"><path d="M23.895 122.428h110.21V74.837H23.895Z"/></clipPath><clipPath id="K" clipPathUnits="userSpaceOnUse"><path d="M31.859 36.763v116.89c0 5.511 4.509 10.019 10.02 10.019h126.908c5.51 0 10.02-4.508 10.02-10.019V36.763zM81.955 56.8c0-3.69 2.989-6.68 6.68-6.68h33.397a6.68 6.68 0 0 1 6.68 6.68 6.68 6.68 0 0 1-6.68 6.68H88.635c-3.691 0-6.68-2.989-6.68-6.68"/></clipPath><clipPath id="N" clipPathUnits="userSpaceOnUse"><path d="M23.895 75.463h110.21v-.626H23.895Z"/></clipPath><clipPath id="M" clipPathUnits="userSpaceOnUse"><path d="M31.859 36.763v116.89c0 5.511 4.509 10.019 10.02 10.019h126.908c5.51 0 10.02-4.508 10.02-10.019V36.763zM81.955 56.8c0-3.69 2.989-6.68 6.68-6.68h33.397a6.68 6.68 0 0 1 6.68 6.68 6.68 6.68 0 0 1-6.68 6.68H88.635c-3.691 0-6.68-2.989-6.68-6.68"/></clipPath><clipPath id="P" clipPathUnits="userSpaceOnUse"><path d="M23.895 74.837h110.21v-.626H23.895Z"/></clipPath><clipPath id="O" clipPathUnits="userSpaceOnUse"><path d="M31.859 36.763v116.89c0 5.511 4.509 10.019 10.02 10.019h126.908c5.51 0 10.02-4.508 10.02-10.019V36.763zM81.955 56.8c0-3.69 2.989-6.68 6.68-6.68h33.397a6.68 6.68 0 0 1 6.68 6.68 6.68 6.68 0 0 1-6.68 6.68H88.635c-3.691 0-6.68-2.989-6.68-6.68"/></clipPath><clipPath id="R" clipPathUnits="userSpaceOnUse"><path d="M23.895 122.428h110.21v-20.665H23.895Z"/></clipPath><clipPath id="Q" clipPathUnits="userSpaceOnUse"><path d="M31.859 36.763v116.89c0 5.511 4.509 10.019 10.02 10.019h126.908c5.51 0 10.02-4.508 10.02-10.019V36.763zM81.955 56.8c0-3.69 2.989-6.68 6.68-6.68h33.397a6.68 6.68 0 0 1 6.68 6.68 6.68 6.68 0 0 1-6.68 6.68H88.635c-3.691 0-6.68-2.989-6.68-6.68"/></clipPath><clipPath id="T" clipPathUnits="userSpaceOnUse"><path d="M-102.696 85.163H7.514V-.627h-110.21Z"/></clipPath><clipPath id="S" clipPathUnits="userSpaceOnUse"><path d="M31.859 36.763v116.89c0 5.511 4.509 10.019 10.02 10.019h126.908c5.51 0 10.02-4.508 10.02-10.019V36.763zM81.955 56.8c0-3.69 2.989-6.68 6.68-6.68h33.397a6.68 6.68 0 0 1 6.68 6.68 6.68 6.68 0 0 1-6.68 6.68H88.635c-3.691 0-6.68-2.989-6.68-6.68"/></clipPath><clipPath id="V" clipPathUnits="userSpaceOnUse"><path d="M31.859 36.763v116.89c0 5.511 4.509 10.019 10.02 10.019h126.908c5.51 0 10.02-4.508 10.02-10.019V36.763zM81.955 56.8c0-3.69 2.989-6.68 6.68-6.68h33.397a6.68 6.68 0 0 1 6.68 6.68 6.68 6.68 0 0 1-6.68 6.68H88.635c-3.691 0-6.68-2.989-6.68-6.68"/></clipPath><radialGradient id="a" cx="0" cy="0" r="1" fx="0" fy="0" gradientTransform="translate(23.583 122.838)scale(142.51974)" gradientUnits="userSpaceOnUse" spreadMethod="pad"><stop offset="0" style="stop-opacity:.09999237;stop-color:#fff"/><stop offset="1" style="stop-opacity:0;stop-color:#fff"/></radialGradient><radialGradient id="W" cx="0" cy="0" r="1" fx="0" fy="0" gradientTransform="translate(23.583 122.838)scale(142.51974)" gradientUnits="userSpaceOnUse" spreadMethod="pad"><stop offset="0" style="stop-opacity:1;stop-color:#fff icc-color(sRGB IEC61966-2 .1,1,1,1)"/><stop offset="1" style="stop-opacity:1;stop-color:#fff icc-color(sRGB IEC61966-2 .1,1,1,1)"/></radialGradient><mask id="U" width="1" height="1" x="0" y="0" maskUnits="userSpaceOnUse"><path d="M-32768 32767h65535v-65535h-65535Z" style="fill:url(#a);stroke:none"/></mask></defs><path d="M1.5 148.5h493V1.5H1.5Z" style="fill:#fff;fill-opacity:1;fill-rule:nonzero;stroke:none" transform="matrix(1.33333 0 0 -1.33333 0 200)"/><path d="M495 149H1V1h494ZM494 2H2v146h492z" style="fill:#dadce0;fill-opacity:1;fill-rule:nonzero;stroke:none" transform="matrix(1.33333 0 0 -1.33333 0 200)"/><path d="M0 0q-5.846 0-9.805 3.959t-3.959 9.879q0 5.919 3.959 9.879Q-5.846 27.675 0 27.676q5.993 0 9.731-4.329l-2.368-2.294Q4.662 24.42 0 24.42q-4.33 0-7.307-2.923-2.979-2.924-2.979-7.659 0-4.737 2.979-7.659Q-4.329 3.255 0 3.256q4.773 0 8.14 3.848l2.368-2.369Q8.694 2.553 5.957 1.276 3.219.001 0 0" clip-path="url(#b)" style="fill:#5f6368;fill-opacity:1;fill-rule:nonzero;stroke:none" transform="matrix(1.33333 0 0 -1.33333 230.844 141.548)"/><path d="M0 0v-8.362l-.148-2.516H0q.74 1.295 2.331 2.201a6.76 6.76 0 0 0 3.404.906q3.366 0 5.143-2.071 1.776-2.073 1.776-5.551v-11.099H9.25v10.582q0 5.031-4.477 5.032-2.109 0-3.441-1.684T0-16.465v-10.027h-3.404V0Z" clip-path="url(#c)" style="fill:#5f6368;fill-opacity:1;fill-rule:nonzero;stroke:none" transform="matrix(1.33333 0 0 -1.33333 253.439 105.436)"/><path d="M0 0h-3.404v18.13h3.256v-2.96H0q.518 1.48 2.127 2.442 1.61.962 3.127.962t2.553-.444l-1.295-3.182q-.667.258-1.813.259-1.85 0-3.275-1.462T0 9.916Z" clip-path="url(#d)" style="fill:#5f6368;fill-opacity:1;fill-rule:nonzero;stroke:none" transform="matrix(1.33333 0 0 -1.33333 280.177 140.76)"/><path d="M0 0q1.757-1.794 4.163-1.795 2.404 0 4.162 1.795 1.758 1.793 1.758 4.755 0 2.96-1.758 4.754t-4.162 1.795q-2.406 0-4.163-1.795t-1.757-4.754Q-1.757 1.793 0 0m-2.534 11.655q2.626 2.756 6.697 2.756t6.697-2.756 2.627-6.9q0-4.146-2.627-6.901-2.628-2.756-6.697-2.756-4.07 0-6.697 2.756t-2.627 6.901q0 4.143 2.627 6.9" clip-path="url(#e)" style="fill:#5f6368;fill-opacity:1;fill-rule:nonzero;stroke:none" transform="matrix(1.33333 0 0 -1.33333 297.566 135.012)"/><path d="M0 0v18.13h3.256v-2.516h.148q.777 1.296 2.387 2.201 1.609.907 3.2.907 4.217 0 5.735-3.478 2.221 3.478 6.327 3.478 3.22 0 4.847-2.053 1.629-2.054 1.628-5.569V0h-3.403v10.582q0 2.738-1 3.885t-3.034 1.147q-1.998 0-3.311-1.702-1.314-1.702-1.314-3.885V0h-3.404v10.582q0 2.738-.999 3.885-.998 1.146-3.034 1.147-1.998 0-3.311-1.702-1.314-1.702-1.314-3.885V0Z" clip-path="url(#f)" style="fill:#5f6368;fill-opacity:1;fill-rule:nonzero;stroke:none" transform="matrix(1.33333 0 0 -1.33333 319.199 140.76)"/><path d="M0 0q-.111 1.553-1.425 2.96-1.313 1.406-3.903 1.406-1.887 0-3.275-1.184T-10.508 0Zm-4.884-11.84q-4.107 0-6.679 2.738t-2.571 6.919q0 3.959 2.497 6.808 2.498 2.849 6.383 2.849 4.034 0 6.456-2.627t2.424-7.03l-.037-.63h-14.318q.146-2.738 1.831-4.328 1.683-1.591 3.94-1.591 3.663 0 4.958 3.108l3.034-1.258Q2.146-8.991.111-10.416t-4.995-1.424" clip-path="url(#g)" style="fill:#5f6368;fill-opacity:1;fill-rule:nonzero;stroke:none" transform="matrix(1.33333 0 0 -1.33333 378.694 125.762)"/><path d="m0 0-7.067-26.492h-3.479l-5.697 17.464h-.149l-5.698-17.464h-3.477L-32.931 0h3.552l5.588-20.831h.147l5.736 17.279h3.181l5.736-17.279h.147L-3.553 0Z" clip-path="url(#h)" style="fill:#5f6368;fill-opacity:1;fill-rule:nonzero;stroke:none" transform="matrix(1.33333 0 0 -1.33333 438.487 105.436)"/><path d="M0 0q-.111 1.553-1.425 2.96-1.313 1.406-3.903 1.406-1.887 0-3.275-1.184T-10.508 0Zm-4.884-11.84q-4.107 0-6.679 2.738t-2.571 6.919q0 3.959 2.497 6.808 2.498 2.849 6.383 2.849 4.034 0 6.456-2.627t2.424-7.03l-.037-.63h-14.318q.146-2.738 1.831-4.328 1.683-1.591 3.94-1.591 3.663 0 4.958 3.108l3.034-1.258Q2.146-8.991.111-10.416t-4.995-1.424" clip-path="url(#i)" style="fill:#5f6368;fill-opacity:1;fill-rule:nonzero;stroke:none" transform="matrix(1.33333 0 0 -1.33333 456.79 125.762)"/><path d="M0 0q2.369 0 4.07 1.795Q5.772 3.588 5.772 6.55q0 2.958-1.702 4.754Q2.369 13.098 0 13.099q-2.405 0-4.088-1.777-1.684-1.775-1.683-4.772t1.683-4.774Q-2.405.001 0 0m.556-3.107q-2.073 0-3.719.887Q-4.81-1.332-5.624 0h-.147v-2.516h-3.256v26.493h3.403v-8.363l-.147-2.515h.147q.814 1.332 2.461 2.219 1.647.888 3.719.888 3.514 0 6.067-2.774 2.553-2.776 2.554-6.882 0-4.107-2.554-6.883T.556-3.107" clip-path="url(#j)" style="fill:#5f6368;fill-opacity:1;fill-rule:nonzero;stroke:none" transform="matrix(1.33333 0 0 -1.33333 477.805 137.405)"/><path d="M0 0q-2.886 0-5.643 1.887-2.756 1.886-3.607 5.291l3.108 1.258a7.1 7.1 0 0 1 2.276-3.682Q-2.146 3.256 0 3.256q2.22 0 3.793 1.165t1.572 3.164q0 2.219-1.572 3.422-1.574 1.203-4.977 2.239-3.515 1.109-5.328 2.867-1.813 1.757-1.812 4.495 0 2.85 2.257 4.958 2.255 2.11 5.882 2.11 3.368 0 5.476-1.684t2.738-3.681l-3.108-1.295q-.333 1.257-1.647 2.331Q1.962 24.42-.11 24.42q-1.962 0-3.349-1.092-1.388-1.09-1.388-2.72 0-1.48 1.277-2.497 1.276-1.018 3.756-1.831 1.96-.63 3.274-1.221a15.2 15.2 0 0 0 2.664-1.573 6.3 6.3 0 0 0 2.035-2.442q.684-1.462.685-3.385 0-1.924-.796-3.441t-2.11-2.406A10.607 10.607 0 0 0 0 0" clip-path="url(#k)" style="fill:#5f6368;fill-opacity:1;fill-rule:nonzero;stroke:none" transform="matrix(1.33333 0 0 -1.33333 514.311 141.548)"/><path d="M0 0q-2.849 0-4.348 1.517t-1.498 4.292v9.509h-3.182v3.108h3.182v5.55h3.404v-5.55h4.44v-3.108h-4.44v-9.25q0-2.961 2.442-2.961.924 0 1.554.297L2.738.48Q1.628 0 0 0" clip-path="url(#l)" style="fill:#5f6368;fill-opacity:1;fill-rule:nonzero;stroke:none" transform="matrix(1.33333 0 0 -1.33333 540.064 141.154)"/><path d="M0 0q1.758-1.794 4.163-1.795 2.404 0 4.162 1.795 1.757 1.793 1.758 4.755 0 2.96-1.758 4.754t-4.162 1.795T0 9.509q-1.757-1.794-1.757-4.754Q-1.757 1.793 0 0m-2.534 11.655q2.626 2.756 6.697 2.756t6.696-2.756q2.627-2.757 2.627-6.9 0-4.146-2.627-6.901T4.163-4.902q-4.07 0-6.697 2.756t-2.627 6.901q0 4.143 2.627 6.9" clip-path="url(#m)" style="fill:#5f6368;fill-opacity:1;fill-rule:nonzero;stroke:none" transform="matrix(1.33333 0 0 -1.33333 552.323 135.012)"/><path d="M0 0h-3.403v18.13h3.256v-2.96H0q.519 1.48 2.128 2.442 1.61.962 3.127.962t2.553-.444l-1.295-3.182q-.667.258-1.814.259-1.85 0-3.274-1.462Q0 12.284 0 9.916Z" clip-path="url(#n)" style="fill:#5f6368;fill-opacity:1;fill-rule:nonzero;stroke:none" transform="matrix(1.33333 0 0 -1.33333 578.493 140.76)"/><path d="M0 0q-.111 1.553-1.425 2.96-1.313 1.406-3.903 1.406-1.887 0-3.275-1.184T-10.508 0Zm-4.884-11.84q-4.107 0-6.679 2.738t-2.571 6.919q0 3.959 2.497 6.808 2.498 2.849 6.383 2.849 4.034 0 6.456-2.627t2.424-7.03l-.037-.63h-14.318q.146-2.738 1.831-4.328 1.683-1.591 3.94-1.591 3.663 0 4.958 3.108l3.034-1.258Q2.146-8.991.111-10.416t-4.995-1.424" clip-path="url(#o)" style="fill:#5f6368;fill-opacity:1;fill-rule:nonzero;stroke:none" transform="matrix(1.33333 0 0 -1.33333 607.846 125.762)"/><path d="M0 0h6.664L3.388 9.044h-.112Zm-5.684-7.84 7.56 20.048h2.912l7.56-20.048H9.492L7.56-2.408H-.868l-1.96-5.432z" clip-path="url(#p)" style="fill:#5f6368;fill-opacity:1;fill-rule:nonzero;stroke:none" transform="matrix(1.33333 0 0 -1.33333 222.693 75.464)"/><path d="m0 0-5.544 13.72h2.8L1.288 3.08h.056l4.088 10.64h2.744L2.576 0Z" clip-path="url(#q)" style="fill:#5f6368;fill-opacity:1;fill-rule:nonzero;stroke:none" transform="matrix(1.33333 0 0 -1.33333 245.28 85.917)"/><path d="M0 0q1.596 0 2.898 1.189T4.2 4.004q-1.092.895-3.276.895-1.877 0-2.828-.811-.952-.812-.952-1.904 0-1.009.868-1.596Q-1.121-.001 0 0m-.42-2.353q-2.184 0-3.654 1.26t-1.47 3.332q0 2.24 1.736 3.515Q-2.072 7.027.476 7.027q2.268 0 3.724-.84v.393q0 1.512-1.036 2.422t-2.548.91a3.95 3.95 0 0 1-2.03-.532q-.91-.533-1.246-1.456l-2.352 1.008q.475 1.232 1.876 2.282t3.696 1.05q2.631 0 4.368-1.54 1.736-1.54 1.736-4.34v-8.288H4.2V0h-.112Q2.548-2.353-.42-2.353" clip-path="url(#r)" style="fill:#5f6368;fill-opacity:1;fill-rule:nonzero;stroke:none" transform="matrix(1.33333 0 0 -1.33333 264.395 83.378)"/><path d="M210.672 85.562h-2.576v13.72h2.576zm0 17.164a1.76 1.76 0 0 0-1.288-.532q-.757 0-1.288.532a1.75 1.75 0 0 0-.533 1.288q0 .756.533 1.288.531.532 1.288.532.756 0 1.288-.532t.532-1.288-.532-1.288" clip-path="url(#s)" style="fill:#5f6368;fill-opacity:1;fill-rule:nonzero;stroke:none" transform="matrix(1.33333 0 0 -1.33333 0 200)"/><path d="M216.607 85.562h-2.576v20.048h2.576z" clip-path="url(#t)" style="fill:#5f6368;fill-opacity:1;fill-rule:nonzero;stroke:none" transform="matrix(1.33333 0 0 -1.33333 0 200)"/><path d="M0 0q1.596 0 2.898 1.189T4.2 4.004q-1.092.895-3.276.895-1.877 0-2.828-.811-.952-.812-.952-1.904 0-1.009.868-1.596Q-1.121-.001 0 0m-.42-2.353q-2.184 0-3.654 1.26t-1.47 3.332q0 2.24 1.736 3.515Q-2.072 7.027.476 7.027q2.268 0 3.724-.84v.393q0 1.512-1.036 2.422t-2.548.91a3.95 3.95 0 0 1-2.03-.532q-.91-.533-1.246-1.456l-2.352 1.008q.475 1.232 1.876 2.282t3.696 1.05q2.631 0 4.368-1.54 1.736-1.54 1.736-4.34v-8.288H4.2V0h-.112Q2.548-2.353-.42-2.353" clip-path="url(#u)" style="fill:#5f6368;fill-opacity:1;fill-rule:nonzero;stroke:none" transform="matrix(1.33333 0 0 -1.33333 299.152 83.378)"/><path d="M0 0q1.791 0 3.08 1.357 1.287 1.358 1.288 3.599 0 2.24-1.288 3.598T0 9.912q-1.82 0-3.094-1.345-1.274-1.343-1.274-3.611 0-2.27 1.274-3.612Q-1.82-.001 0 0m.42-2.353q-1.567 0-2.814.672Q-3.641-1.008-4.256 0h-.112v-1.904h-2.464v20.048h2.576v-6.329l-.112-1.903h.112q.615 1.008 1.862 1.68t2.814.672q2.66 0 4.592-2.1t1.931-5.208q.001-3.109-1.931-5.208T.42-2.353" clip-path="url(#v)" style="fill:#5f6368;fill-opacity:1;fill-rule:nonzero;stroke:none" transform="matrix(1.33333 0 0 -1.33333 321.029 83.378)"/><path d="M252.503 85.562h-2.575v20.048h2.575z" clip-path="url(#w)" style="fill:#5f6368;fill-opacity:1;fill-rule:nonzero;stroke:none" transform="matrix(1.33333 0 0 -1.33333 0 200)"/><path d="M0 0q-.085 1.176-1.078 2.24-.995 1.064-2.954 1.065-1.428 0-2.479-.897Q-7.561 1.512-7.952 0zm-3.696-8.96q-3.109 0-5.054 2.072-1.947 2.071-1.946 5.237 0 2.996 1.889 5.151 1.89 2.156 4.83 2.156 3.053 0 4.886-1.988t1.834-5.319l-.027-.477H-8.12q.111-2.073 1.386-3.275 1.272-1.204 2.981-1.204Q-.98-6.607 0-4.256l2.296-.952Q1.624-6.803.084-7.882q-1.54-1.077-3.78-1.078" clip-path="url(#x)" style="fill:#5f6368;fill-opacity:1;fill-rule:nonzero;stroke:none" transform="matrix(1.33333 0 0 -1.33333 353.883 74.568)"/><path d="M279.467 85.562h-2.576v13.72h2.576zm0 17.164a1.76 1.76 0 0 0-1.288-.532q-.757 0-1.288.532a1.75 1.75 0 0 0-.533 1.288q0 .756.533 1.288.531.532 1.288.532.756 0 1.288-.532.531-.532.532-1.288 0-.756-.532-1.288" clip-path="url(#y)" style="fill:#5f6368;fill-opacity:1;fill-rule:nonzero;stroke:none" transform="matrix(1.33333 0 0 -1.33333 0 200)"/><path d="M0 0v-1.903h.111q.56.979 1.765 1.666a5.1 5.1 0 0 0 2.576.685Q7 .448 8.344-1.12t1.344-4.199v-8.401H7.111v8.008q0 3.808-3.387 3.809-1.596 0-2.604-1.275T.111-6.132v-7.588h-2.575V0Z" clip-path="url(#z)" style="fill:#5f6368;fill-opacity:1;fill-rule:nonzero;stroke:none" transform="matrix(1.33333 0 0 -1.33333 380.387 67.624)"/><path d="M0 0q-2.156 0-3.29 1.147-1.134 1.149-1.134 3.249v7.196h-2.408v2.351h2.408v4.201h2.576v-4.201h3.36v-2.351h-3.36v-7q0-2.24 1.848-2.24.7 0 1.176.223L2.072.363Q1.232 0 0 0" clip-path="url(#A)" style="fill:#5f6368;fill-opacity:1;fill-rule:nonzero;stroke:none" transform="matrix(1.33333 0 0 -1.33333 413.462 86.215)"/><path d="M0 0v-6.328l-.111-1.903H0q.56.979 1.765 1.666a5.1 5.1 0 0 0 2.576.685q2.548 0 3.891-1.568 1.345-1.569 1.344-4.199v-8.401H7v8.008q0 3.808-3.388 3.809-1.595 0-2.603-1.275T0-12.46v-7.588h-2.575V0Z" clip-path="url(#B)" style="fill:#5f6368;fill-opacity:1;fill-rule:nonzero;stroke:none" transform="matrix(1.33333 0 0 -1.33333 422.384 59.187)"/><path d="M0 0q-.085 1.176-1.078 2.24-.995 1.064-2.954 1.065-1.428 0-2.479-.897Q-7.561 1.512-7.952 0zm-3.696-8.96q-3.109 0-5.054 2.072-1.947 2.071-1.946 5.237 0 2.996 1.889 5.151 1.89 2.156 4.83 2.156 3.053 0 4.886-1.988t1.834-5.319l-.027-.477H-8.12q.111-2.073 1.386-3.275 1.272-1.204 2.981-1.204Q-.98-6.607 0-4.256l2.296-.952Q1.624-6.803.084-7.882q-1.54-1.077-3.78-1.078" clip-path="url(#C)" style="fill:#5f6368;fill-opacity:1;fill-rule:nonzero;stroke:none" transform="matrix(1.33333 0 0 -1.33333 452.401 74.568)"/><path d="M23.895 122.428h110.211V27.246H23.895Z" clip-path="url(#D)" style="fill:#eee;fill-opacity:1;fill-rule:nonzero;stroke:none" transform="matrix(1.33333 0 0 -1.33333 0 200)"/><path d="M0 0h-25.048a5.01 5.01 0 1 1 0-10.019H0A5.01 5.01 0 0 1 5.01-5.01 5.01 5.01 0 0 1 0 0" clip-path="url(#E)" style="fill:#fff;fill-opacity:1;fill-rule:nonzero;stroke:none" transform="matrix(1.33333 0 0 -1.33333 122.032 50.122)"/><path d="M0 0v-58.405h21.297l18.736 32.449h47.591V0Zm0 0v-58.405h21.297l18.736 32.449h47.591V0Z" clip-path="url(#F)" style="fill:#db4437;fill-opacity:1;fill-rule:nonzero;stroke:none" transform="matrix(1.33333 0 0 -1.33333 51.956 90.199)"/><path d="M0 0h45.299l21.028 21.028v15.743l-37.472.006L0 86.266Zm0 0h45.299l21.028 21.028v15.743l-37.472.006L0 86.266Z" clip-path="url(#G)" style="fill:#0f9d58;fill-opacity:1;fill-rule:nonzero;stroke:none" transform="matrix(1.33333 0 0 -1.33333 41.879 217.108)"/><path d="m0 0 18.736-32.449-21.022-36.778h49.877V0Zm0 0 18.736-32.449-21.022-36.778h49.877V0z" clip-path="url(#H)" style="fill:#ffcd40;fill-opacity:1;fill-rule:nonzero;stroke:none" transform="matrix(1.33333 0 0 -1.33333 105.333 124.806)"/><path d="M0 0c11.949 0 21.635-9.687 21.635-21.636S11.949-43.271 0-43.271s-21.635 9.687-21.635 21.635S-11.949 0 0 0" clip-path="url(#I)" style="fill:#f1f1f1;fill-opacity:1;fill-rule:nonzero;stroke:none" transform="matrix(1.33333 0 0 -1.33333 105.333 124.806)"/><path d="M0 0c9.559 0 17.308-7.749 17.308-17.309 0-9.558-7.749-17.307-17.308-17.307s-17.308 7.749-17.308 17.307C-17.308-7.749-9.559 0 0 0" clip-path="url(#J)" style="fill:#4285f4;fill-opacity:1;fill-rule:nonzero;stroke:none" transform="matrix(1.33333 0 0 -1.33333 105.333 130.575)"/><g clip-path="url(#K)" opacity=".05"><path d="M23.895 122.428h110.211V74.837H23.895Z" clip-path="url(#L)" style="fill:#212121;fill-opacity:1;fill-rule:nonzero;stroke:none" transform="matrix(1.33333 0 0 -1.33333 0 200)"/></g><g clip-path="url(#M)" opacity=".02"><path d="M23.895 75.463h110.211v-.626H23.895Z" clip-path="url(#N)" style="fill:#212121;fill-opacity:1;fill-rule:nonzero;stroke:none" transform="matrix(1.33333 0 0 -1.33333 0 200)"/></g><g clip-path="url(#O)" opacity=".05"><path d="M23.895 74.837h110.211v-.626H23.895Z" clip-path="url(#P)" style="fill:#fff;fill-opacity:1;fill-rule:nonzero;stroke:none" transform="matrix(1.33333 0 0 -1.33333 0 200)"/></g><g clip-path="url(#Q)" opacity=".02"><path d="M23.895 121.801h110.211v.626H23.895Zm67.629-19.411H66.476a5 5 0 0 0-4.991 4.696 3 3 0 0 1-.019-.313 5.01 5.01 0 0 1 5.01-5.01h25.048a5.01 5.01 0 0 1 5.01 5.01c0 .106-.007.206-.019.313a5 5 0 0 0-4.991-4.696" clip-path="url(#R)" style="fill:#212121;fill-opacity:1;fill-rule:nonzero;stroke:none" transform="matrix(1.33333 0 0 -1.33333 0 200)"/></g><g clip-path="url(#S)" opacity=".1"><path d="M0 0h-95.182c-4.132 0-7.514 3.382-7.514 7.515v-.627c0-4.133 3.382-7.514 7.514-7.514H0c4.133 0 7.515 3.381 7.515 7.514v.627C7.515 3.382 4.133 0 0 0m-60.115 84.537h25.048a5 5 0 0 0 4.991-4.697c.006.106.019.207.019.313a5.01 5.01 0 0 1-5.01 5.01h-25.048a5.01 5.01 0 0 1-5.01-5.01c0-.106.007-.207.02-.313a5 5 0 0 0 4.99 4.697" clip-path="url(#T)" style="fill:#231f20;fill-opacity:1;fill-rule:nonzero;stroke:none" transform="matrix(1.33333 0 0 -1.33333 168.788 162.837)"/></g><g clip-path="url(#V)" mask="url(#U)"><path d="M23.894 122.428V34.76c0-4.133 3.382-7.514 7.515-7.514h95.181c4.133 0 7.515 3.381 7.515 7.514v87.668zm37.572-15.029a5.01 5.01 0 0 0 5.01 5.01h25.048a5.01 5.01 0 0 0 5.01-5.01 5.01 5.01 0 0 0-5.01-5.01H66.476a5.01 5.01 0 0 0-5.01 5.01" style="fill:url(#W);stroke:none" transform="matrix(1.33333 0 0 -1.33333 0 200)"/></g></svg>