<svg xmlns="http://www.w3.org/2000/svg" xml:space="preserve" style="fill-rule:evenodd;clip-rule:evenodd;stroke-linejoin:round;stroke-miterlimit:2" viewBox="0 0 862 862"><path d="M138.449 1.041c.451.219.6.856 1.051 1.075.144.07.192-.234 1.973.298 3.033.907 2.994-.678 10.026-1.006 11.908-.556 11.871-.209 149.008-.247 32.56-.009 395.099-.111 406.998.081 8.165.132 10.68 1.923 12.026 1.517.382-.115.589-.583.97-.703.077-.024.067.035 1 .083 1.626.085 1.936-1.034 2.054-1.097 6.676.018 6.709-.157 8.868.64 2.186.807 2.415-.306 6 1.003 2.416.883 2.572.125 5 1.002 2.425.875 2.564.126 5 1 1.306.469 2.247.315 3.159.613 14.909 4.869 14.704 5.38 16.013 5.751 3.733 1.06 10.846 5.477 16.011 8.278.993.538.798.766 1.787 1.348 3.702 2.181 3.496 2.462 7.216 4.645 1.59.934 1.182 1.422 2.788 2.352 5.142 2.976 4.172 4.4 7 6.003.636.36 3.534 2.003 6.854 6.037 1.257 1.527.772 1.888 4.484 5.548 2.315 2.282 1.713 2.743 3.995 5.007 3.994 3.961 2.887 4.805 6.007 8.001.658.674 4.447 7.102 4.964 8.129 6.443 12.798 7.714 15.302 10.98 25.028 4.003 11.921 3.286 12.117 3.637 13.151.97 2.856.368 2.993 1.379 5.843.879 2.478-.231 2.657.62 5.158 1.041 3.059.633 3.119.703 7.931.034 2.37.799 2.715 1.017 4.027.12.722 0 216.167-.01 234.964-.127 228.893.097 228.921-.397 232.073-.73-.035-6.855-.327-9.13-.082-1.394.15-1.204 1.337-1.238 1.375-2.32-.717-2.365-.629-52.761-.585l-56.998-.023c-56.878-.031-704.342-.386-710.972.25-.725-3.171-.529-3.222-.559-150.008-.005-25.597-.065-319.654-.013-319.964.229-1.373.966-1.536 1.019-4.028.075-3.514-.448-3.586.703-6.93.572-1.662.053-3.576.619-5.16 1.02-2.852.412-2.986 1.38-5.841.35-1.034-.337-1.22 3.634-13.152 5.169-15.529 9.053-20.726 13.005-28.035.137-.254.317-.127 2.008-2.995 1.325-2.248 3.563-4.742 3.907-5.125.267-.297-.074-.533 2.996-3.998.531-.599.659-1.722 2.502-3.536 5.724-5.634 5.902-5.467 7.581-8.352.815-1.401 1.754-.919 3.965-3.109 2.016-1.997 1.942-2.036 3.982-4.021 2.067-2.011 2.47-1.469 4.486-3.512 1.834-1.859 10.268-6.769 12.983-8.973 1.057-.858 16.576-8.529 20.677-9.715.558-.161 6.452-2.767 8.043-2.988 4.116-.572 3.906-1.308 8.008-2.06 1.577-.289 1.417-.796 2.995-.942 2.024-.187 2-.126 3.963-.774 2.991-.988 3.218.486 6.163-.614 2.177-.813 2.213-.615 8.873-.635Z" style="fill:#3ca5ed"/><path d="M713.5 861.999h-571c-.472-.122-.578-.896-1.05-1.018-1.496-.387-2.549.809-6.875-.673-2.749-.941-2.981.389-7.001-.996-2.252-.776-2.444.223-6-1.001-.506-.174-3.247-.278-7.15-1.627-1.985-.686-2.035-.365-3.996-1.004-4.951-1.613-5.12-1.101-9.825-3.384-2.58-1.252-2.788-.758-16.207-7.593-3.533-1.8-9.284-6.092-9.794-6.371-2.838-1.553-2.908-1.404-5.344-3.55-.291-.256-2.237-1.315-2.518-1.563-3.452-3.046-3.73-2.689-7.003-5.957-9.729-9.716-9.793-9.636-10.404-10.659-2.566-4.29-4.986-4.932-8.001-10-1.288-2.164-1.709-1.84-2.999-4-2.772-4.642-3.181-4.376-5.629-9.207-1.357-2.678-1.156-2.769-2.915-5.126-.483-.647-6.608-15.2-8.843-22.868-1.692-5.806-1.598-5.807-2.027-8.957-.045-.327-.42-.229-.998-4.004-.142-.925-.879-2.521-.923-2.983-.182-1.888.268-1.952-.681-4.885-.946-2.921-.103-3.066-.999-6.004-.597-1.957.299-2-.066-4.003-.218-1.195-.223-1.209-.218-131.064 0-4.028-.247-4.029.495-7.993 6.63-.636 654.094-.281 710.972-.25l56.998.023c50.396-.044 50.441-.132 52.761.585 3.741 1.282 3.85.114 10.276.607.053.217.536.615.497 2.033-.026.954-.069.923-.069 1.994-.006 133.952.071 133.978-.283 135.072-1.668 5.151.08 5.655-1.002 8.999-.796 2.46-.153 2.574-.998 5.001-.852 2.447-.154 2.573-1 5-.102.293-.273.559-.368.853-.302.933-.178 1.848-.631 3.147-.682 1.955-.313 2.034-1.002 3.999-3.915 11.166-3.228 11.422-6.982 19.029-2.293 4.647-2.853 7.567-4.487 9.665-1.124 1.443-1 1.493-2.552 4.331-.541.99-.749.817-1.332 1.797-2.503 4.205-3.448 5.078-3.998 6.001-1.64 2.753-2.026 2.467-3.665 5.206-.739 1.235-2.602 2.57-3.335 3.794-2.786 4.651-4.767 5.007-6.552 7.345-1.328 1.74-1.347 1.683-3.037 3.038a6.3 6.3 0 0 0-.963.963c-.456.567-.734 1.274-1.249 1.788-.161.161-.332-.117-2.26 1.73-1.024.981-.982.976-2.01 1.998-3.277 3.257-3.544 2.912-7.005 5.955-.279.246-4.144 2.268-4.526 2.568-1.437 1.127-1.567.87-3 1.999-3.049 2.401-11.208 5.596-12.999 7.002-3.651 2.865-4.274 2.052-9.334 4.512-5.644 2.744-12.405 4.36-16.974 6.011-4.047 1.462-4.416.117-6.995 1.008-2.442.844-2.57.163-5 .998-4.022 1.381-4.253.058-7 .999-4.321 1.48-10.321.273-11.875.674-.472.122-.579.895-1.05 1.016M347.516 84.148c35.731 1.967 111.05 20.863 155.723 98.504 23.742 41.263 37.355 107.137 7.446 173.928-41.785 93.31-148.752 136.805-243.021 101.487-13.127-4.918-30.492-14.119-40.975-21.832-3.382-2.488-3.973-2.443-5.939-.489-38.691 38.452-101.639 101.545-104.525 103.346-23.709 14.8-47.348-10.888-35.274-31.297 2.655-4.488 3.099-4.133 60.822-62.028 3.434-3.444 28.253-28.337 43.037-42.942 2.966-2.93.677-3.375-1.827-6.695-10.575-14.022-48.955-62.38-39.695-143.66 2.103-18.461 10.63-51.714 28.403-78.852.057-.086 30.392-52.989 94.672-77.506 30.061-11.466 54.65-13.291 81.155-11.965Z" style="fill:#fefefe"/><path d="M324.513 428.15c-19.983-1.199-43.014-7.396-62.277-18.173-75.138-42.037-78.182-116.947-78.576-120.496-4.611-41.444 12.249-84.89 36.666-112.136 73.907-82.469 204.599-62.761 251.652 34.932 36.202 75.165 3.177 162.244-66.559 199.067-36.096 19.06-66.791 17.548-80.905 16.805Z" style="fill:#3ba4ed"/><path d="M261.499 298.885c-.901-.031-5.729.27-9.167-2.132-6.865-4.796-6.107-11.333-6.07-16.255.01-1.304-2.413-19.256 13.234-20.058 4.916-.252 127.884-.091 139.004-.076 22.637.03 26.231-1.128 31.239 7.006.722 1.173 2.197 3.568 1.722 17.13-.056 1.6-.493 14.066-13.951 14.35-1.085.023-143.53.035-156.011.036Z" style="fill:#c7eafd"/><path d="M349.501 362.887c-91.964-.009-92.079.288-94.883-.736-10.312-3.766-8.564-14.428-8.536-20.655.009-1.853-1.312-11.41 7.553-15.709 3.913-1.898 9.186-1.093 96.865-1.244 29.483-.051 29.946-.277 33.945 3.024 5.356 4.423 4.88 8.842 4.828 19.933-.001.161 1.564 12.504-10.744 15.145-1.116.239-1.718.277-29.027.243ZM253.39 197.3c1.92-.843 1.9-.859 2.073-.911 4.147-1.232 4.262-.609 115.038-.71 2.054-.002 16.254-2.245 18.988 10.822.484 2.316.362 14.329.221 16.02-.35 4.198-4.284 10.357-11.162 11.282-4.047.544-4.057.259-51.047.252-62.599-.009-62.585.12-68.021-.121-8.081-.358-12.786-6.658-13.013-13.435-.607-18.142 1.635-19.683 6.923-23.201Z" style="fill:#c8eafd"/><path d="M134.498 684.119c-11.41.026-13.955.255-14.591-.883-1.052-1.882-1.062-4.433-6.26-7.978-8.229-5.611-29.472-2.324-26.471 12.303 3.268 15.931 50.251 6.005 50.91 38.944.716 35.775-48.087 34.863-62.303 19.731-6.733-7.167-7.655-16.721-7.153-17.667.531-.998 2.37-.786 12.868-.775 3.074.003 3.45.049 4.388 2.568 5.973 16.043 38.088 13.316 33.997-4.942-3.047-13.597-33.346-9.261-44.934-23.297-8.654-10.482-11.076-37.525 19.5-43.844 3.711-.767 13.344-.96 18.109-.045 20.399 3.916 23.4 18.244 24.183 23.223.475 3.022-1.231 2.395-2.244 2.661Z" style="fill:#1d394e"/><path d="M276.077 710.499c-.007 30.616.068 30.593.563 38.992.118 1.996.723 4.331-2.136 4.378-13.009.214-13.136.337-13.977-.401-1.169-1.026-.192-6.738-.631-7.24-1.53-1.75-1.348.653-6.236 4.485-11.559 9.06-38.526 6.578-38.293-16.215.274-26.859 40.828-20.514 43.612-23.627.795-.889 1.488-11.966-8.425-13.646-1.615-.274-11.827-1.446-15.067 5.269-1.781 3.691-2.746 2.846-8.988 2.849-4.226.002-7.9.263-8.244-.715-1.071-3.045 4.567-22.072 28.243-22.267 24.477-.201 28.1 15.549 28.709 18.2 1.098 4.772.794 6.561.869 9.939ZM209.086 716.503c-.006 1.813.645 6.544-1.618 6.758-3.358.316-43.762-.405-44.817.44-1.728 1.384.267 20.742 19.908 17.048 5.138-.966 7.608-4.555 8.042-5.186 1.458-2.119 1.942-1.745 11.899-1.736.305 0 4.843-.229 5.202.5 1.269 2.578-4.811 12.29-9.165 15.22-4.12 2.772-6.439 4.731-16.007 6.178-4.168.63-14.982.545-22.829-4.549-19.599-12.724-18.206-45.826-5.052-59.535 12.475-13.001 33.973-11.555 44.756-1.043 9.67 9.426 9.529 23.02 9.68 25.905ZM677.922 714.514c2.065-23.525 18.077-30.411 25.634-31.578 25.358-3.917 33.385 13.889 34.65 16.695 3.756 8.333 4.271 21.935 2.612 23.304-1.231 1.015-44.298-.128-45.294.611-1.629 1.209-.325 9.264 4.185 13.743 5.352 5.314 14.04 4.461 18.856 2.346 4.695-2.061 4.227-5.81 7.931-5.827 1.038-.005 11.203-.051 12.971.036.441.022 2.364.178-.272 5.518-10.982 22.244-38.669 17.909-47.823 11.328-15.534-11.167-13.557-30.363-13.45-36.176" style="fill:#1d384d"/><path d="M448.558 684.365c-1.851 1.882-2.013 1.791-1.981 2.014.043.295.563.197.838.312 4.631 1.932 4.347 2.39 7.979 5.865 1.328 1.271 1.12 1.394 1.948 3.046.715 1.428.63 1.444 1.456 3.751 1.071 2.991.244 3.142 1.195 6.135.129.405.708.592.777 1.012.061.371-.342.676-.44 1.04-.191.715-.132 35.854-.127 38.972.007 4.382.455 4.439.219 4.735-.201.252-.642.05-.964.054-.866.012-10.372.145-10.83.026-.499-.13.308-36.746-.361-40.769-.32-1.921.104-1.895.074-2.057-.077-.418-.5-.695-.669-1.085-.06-.137.154-.19-.462-1.813-1.025-2.704-.888-2.746-1.001-2.97-.987-1.965-1.874-1.658-2.065-1.927-.191-.267.292-.661.177-.969-.065-.175-1.78-1.931-2.025-2.059-.259-.136-.635.103-.875-.065-.191-.134-.03-.499-.181-.677-.704-.834-1.641.087-1.741.185-.394.388-.586.951-.981 1.339-.404-.151-.775-.379-1.179-.53-5.466-2.04-14.603-.904-18.393 8.734-2.632 6.693-.591 42.538-1.335 45.862-.359 1.603-1.512 1.369-12.113 1.338-3.178-.009-4.579.825-4.606-2.362-.016-1.862-.005-90.646.006-91.002.069-2.209.41-2.502 2.604-2.47 6.433.093 13.033-.452 13.847.59.27.346.374.373.326 26.881-.011 6.105-.658 6.463.06 6.673 2.264.663 3.967-8.777 18.764-9.682 6.201-.379 6.182-.03 12.059 1.873" style="fill:#1e3a4e"/><path d="M593.083 686.502c.003 13.938.002 64.84 0 64.995-.024 2.148-.423 2.367-2.586 2.375-13.308.052-13.834.03-14.152-1.336-.063-.271-.054-2.9.074-4.036.027-.235.62-5.493-1.425-2.596-.39.553-2.071 4.833-9.62 8.294-10.067 4.615-35.445 1.653-34.398-27.699.088-2.47-.085-33.724.078-38.995.046-1.489-.657-3.455 2.446-3.545 6.023-.176 5.995.163 11.994.067 2.175-.035 2.479.294 2.532 2.469.032 1.298-.057 28.59.004 33 .011.788-2.275 18.902 10.424 21.239 1.044.192 17.165 2.539 17.501-17.231.315-18.535-.216-18.496.015-37.007.038-3.058 1.454-2.542 11.532-2.542.317 0 3.815 0 3.958.024 1.686.282 1.188.885 1.625 2.522Z" style="fill:#1c394e"/><path d="M623.107 715.496c-.105 36.735.438 37.021-.612 37.998-.53.492-14.959.781-15.8-.17-.623-.705-.327-.872-.395-61.824-.004-3.171-.422-7.035 1.056-7.373.069-.016 13.958-.751 15.099.414.95.97-.026 7.472.262 7.834.889 1.12 2.511-1.826 2.654-1.997 10.528-12.62 34.067-9.999 40.412 4.997 2.926 6.915 2.402 7.155 2.459 55.126.001 1.216.381 3.228-1.707 3.361-.085.005-8.044.001-12.035.004-3.818.003-3.117-1.543-3.125-5.367-.088-39.289 1.198-43.848-5.761-49.163-4.932-3.766-21.798-5.035-22.507 16.159Z" style="fill:#1d384d"/><path d="M460.919 662.5c.028-.179-.181-2.704 1.6-2.806.909-.052 38.623-.02 41.981-.017 30.72.026 31.254-.206 31.617.949.565 1.8.12 11.831.075 12.859-.098 2.199-2.298 1.713-11.69 1.705-15.436-.012-16.083-.296-16.616 1.363-.024.075-.02 2.711-.019 2.947.014 8.794.014 71.562.007 72.002-.033 2.007-.665 2.308-2.367 2.369-14.922.543-15.235-.225-15.601-1.424-.011-.036-.054-.035-.049-50.947.003-24.019.021-24.761-.059-25.081-.516-2.061-1.522-1.024-26.297-1.243-3.268-.029-2.592-1.77-2.581-12.676Z" style="fill:#1d384c"/><path d="M329.911 710.536c.626-3.084.556-3.077 1.364-6.107 1.261-4.733 7.695-18.096 23.146-21.308 19.282-4.01 29.112 6.708 30.843 8.596 4.844 5.281 7.98 15.437 6.043 16.434-.911.469-.947.307-12.807.258-4.165-.017-2.734-2.183-4.764-5.058-6.407-9.076-15.21-5.71-17.279-4.953-14.634 5.355-13.548 40.86 4.005 42.467 12.603 1.154 14.564-8.467 15.384-10.178.68-1.419 2.928-1.144 11.654-1.115 3.499.012 5.181-.571 4.633 2.889-1.587 10.026-8.068 15.531-9.221 16.511-13.937 11.838-32.023 5.727-36.318 3.357-20.422-11.272-17.138-36.336-16.683-41.793" style="fill:#1d384d"/><path d="m286.888 706.5-.009-20.001c.069-2.222.387-2.532 2.619-2.539.964-.003 10.138-.034 12.044.073 3.307.186 1.248 6.186 1.637 7.651.043.161.499 1.877 2.043-.413.656-.974 4.39-6.512 12.197-8.163 9.549-2.021 9.669.628 9.705 1.411.014.3.03 12.844.011 12.963-.638 4.006-10.15-2.004-17.999 5.642-7.387 7.196-4.897 16.509-5.24 48.374-.032 3.002-1.748 2.366-11.394 2.38-3.732.005-5.578 1.009-5.624-3.378-.037-3.52-.025-3.513.011-43.999Z" style="fill:#1c384d"/><path d="M768.147 728.498c.017 21.201.029 21.156-.007 22.995-.064 3.223-1.451 2.37-4.639 2.373-10.748.011-12.13.582-12.256-2.363-.006-.133-.014-64.716-.007-65.005.09-3.572 1.702-2.47 5.262-2.472 9.406-.006 10.954-.408 11.4 1.391.32 1.292-.479 6.633-.204 6.958.194.229 1.229.194 1.483-.157.172-.237.002-.572 1.088-1.927 7.272-9.067 19.581-8.254 20.648-7.249.668.629.738.758.654 11.456-.024 3.02.989 4.43-2.068 4.465-4.669.053-11.634-1.368-17.247 5.342-4.931 5.895-4.114 14.108-4.108 24.191Z" style="fill:#1d384d"/><path d="M139.5 0h583l1.054 1.041c-.119.063-.429 1.183-2.054 1.097-.933-.049-.923-.108-1-.083-.381.12-.588.587-.97.703-1.346.406-3.861-1.385-12.026-1.517-11.899-.192-374.438-.09-406.998-.081-137.137.039-137.1-.309-149.008.247-7.032.328-6.993 1.913-10.026 1.006-1.781-.532-1.829-.228-1.973-.298-.451-.219-.6-.856-1.051-1.075l1.051-1.041Z" style="fill:#1495ed"/><path d="M448.558 684.365c7.49 3.458 14.094 8.859 14.217 26.134.023 3.28.21 29.368-.012 41.005-.038 2.019-.795 2.304-2.256 2.371-1.044.048-8.542.391-13.064-.014-1.876-.168-1.54-1.108-1.55-16.359-.018-27.899 1.188-34.051-7.375-39.041.394-.388.586-.951.981-1.339.1-.098 1.037-1.019 1.741-.185.151.178-.01.543.181.677.239.168.616-.071.875.065.245.129 1.96 1.885 2.025 2.059.115.307-.368.702-.177.969.192.268 1.078-.038 2.065 1.927.113.224-.025.266 1.001 2.97.615 1.623.402 1.675.462 1.813.169.39.592.667.669 1.085.03.162-.394.136-.074 2.057.669 4.024-.138 40.64.361 40.769.457.119 9.963-.014 10.83-.026.322-.004.764.197.964-.054.236-.296-.211-.353-.219-4.735-.005-3.118-.064-38.257.127-38.972.097-.363.501-.668.44-1.04-.069-.42-.648-.607-.777-1.012-.951-2.993-.124-3.144-1.195-6.135-.826-2.307-.741-2.323-1.456-3.751-.828-1.652-.62-1.775-1.948-3.046-3.632-3.475-3.348-3.933-7.979-5.865-.275-.115-.795-.017-.838-.312-.033-.224.13-.132 1.981-2.014Z" style="fill:#0a2136"/><path d="M246.463 725.098c10.833-1.36 10.829-1.365 11.048-1.38.199-.013 1.987-.133 1.765 1.765-2.386 20.38-25.201 20.216-26.568 9.987-1.25-9.354 9.407-9.859 13.755-10.373Z" style="fill:#fdfefe"/><path d="M174.455 697.089c1.372-.131 8.077-1.309 12.955 3.502 3.747 3.696 4.357 9.538 4.265 9.959-.296 1.358-1.504 1.033-16.175 1.039-11.712.004-13.443.544-12.863-2.061 2.315-10.394 8.707-11.818 11.818-12.439" style="fill:#fefefe"/><path d="M707.453 697.07c.951-.054 1.923-.39 6.105.09 7.364.845 11.299 10.345 10.314 13.513-.35 1.127-1.099.894-14.372.9-12.916.006-14.71.543-14.127-2.095 2.662-12.04 11.912-12.38 12.08-12.408" style="fill:#fdfdfe"/></svg>